# xmcd CD database file
#
# Track frame offsets:
#	150
#	3722
#	22607
#	43382
#	67075
#	92422
#	114230
#	138632
#	165945
#	195107
#	215037
#	234755
#	257925
#	280387
#
# Disc length: 4092 seconds
#
# Revision: 0
# Processed by: cddbd v1.5.1PL0 Copyright (c) Steve Scherf et al.
# Submitted via: CDex 1.51
#
DISCID=ba0ffa0e
DTITLE=千葉紗子 - everything
DYEAR=2004
DGENRE=Seiyu
TTITLE0=overture #instrumental
TTITLE1=My Gerrn Park
TTITLE2=アイスクリイム
TTITLE3=here we stand in the morning dew
TTITLE4=(We are so)together
TTITLE5=ダイヤの原石 #brilliant covered
TTITLE6=雨のヴィオロン
TTITLE7=ひとりでも、ふたりなら
TTITLE8=Take me
TTITLE9=Rosemary Story
TTITLE10=星が解けて
TTITLE11=my song
TTITLE12=さよならソリティア
TTITLE13=Wednesday Morning
EXTD=YEAR: 2004
EXTT0=
EXTT1=
EXTT2=
EXTT3=
EXTT4=
EXTT5=
EXTT6=
EXTT7=
EXTT8=
EXTT9=
EXTT10=
EXTT11=
EXTT12=
EXTT13=
PLAYORDER=
